<?xml version="1.0" encoding="UTF-8" standalone="no"?>
<svg
   xmlns:dc="http://purl.org/dc/elements/1.1/"
   xmlns:cc="http://creativecommons.org/ns#"
   xmlns:rdf="http://www.w3.org/1999/02/22-rdf-syntax-ns#"
   xmlns:svg="http://www.w3.org/2000/svg"
   xmlns="http://www.w3.org/2000/svg"
   viewBox="0 0 318.89999 101.323"
   height="101.323"
   width="318.89999"
   xml:space="preserve"
   version="1.1"
   id="svg2"><metadata
     id="metadata8"><rdf:RDF><cc:Work
         rdf:about=""><dc:format>image/svg+xml</dc:format><dc:type
           rdf:resource="http://purl.org/dc/dcmitype/StillImage" /><dc:title></dc:title></cc:Work></rdf:RDF></metadata><defs
     id="defs6"><clipPath
       id="clipPath18"
       clipPathUnits="userSpaceOnUse"><path
         id="path20"
         d="m 0,81.058 255.12,0 L 255.12,0 0,0 0,81.058 Z" /></clipPath></defs><g
     transform="matrix(1.25,0,0,-1.25,0,101.323)"
     id="g10"><path
       id="path12"
       style="fill:#42abe1;fill-opacity:1;fill-rule:nonzero;stroke:none"
       d="m 126.712,0 9.742,0 0,61.78 -9.742,0 0,-61.78 z" /><g
       id="g14"><g
         clip-path="url(#clipPath18)"
         id="g16"><g
           transform="translate(245.3841,76.2025)"
           id="g22"><path
             id="path24"
             style="fill:#ff32ff;fill-opacity:1;fill-rule:nonzero;stroke:none"
             d="M 0,0 -0.006,0 C -0.01,1.272 -0.525,2.522 -1.427,3.424 -2.334,4.33 -3.59,4.856 -4.875,4.856 -6.152,4.856 -7.408,4.33 -8.314,3.424 -9.22,2.519 -9.746,1.262 -9.746,-0.015 c 0,-0.008 0.001,-0.016 0.002,-0.024 l -0.002,0 0,-38.033 0,0 c 0,-4.96 -1.931,-9.624 -5.439,-13.131 -1.962,-1.963 -4.295,-3.411 -6.83,-4.324 -1.993,-0.718 -4.109,-1.113 -6.29,-1.115 l 0,-9.779 c 7.251,0.003 14.502,2.77 20.035,8.303 5.536,5.536 8.284,12.791 8.284,20.046 L 0,0 Z" /></g><path
           id="path26"
           style="fill:#507aff;fill-opacity:1;fill-rule:nonzero;stroke:none"
           d="m 103.923,66.623 37.401,0 0,-9.741 -37.401,0 0,9.741 z" /><g
           transform="translate(197.0212,18.1146)"
           id="g28"><path
             id="path30"
             style="fill:#00b4ff;fill-opacity:1;fill-rule:nonzero;stroke:none"
             d="m 0,0 c -5.536,5.536 -8.284,12.791 -8.284,20.046 l 0,0.208 -9.722,0 0,-0.208 c 0,-9.738 3.715,-19.476 11.145,-26.907 6.061,-6.06 13.657,-9.647 21.537,-10.764 1.784,-0.253 3.583,-0.381 5.382,-0.381 l 0,9.703 C 12.799,-8.306 5.539,-5.539 0,0" /></g><g
           transform="translate(210.7956,20.665)"
           id="g32"><path
             id="path34"
             style="fill:#b400c8;fill-opacity:1;fill-rule:nonzero;stroke:none"
             d="m 0,0 c -2.547,0.913 -4.89,2.365 -6.859,4.335 -3.508,3.507 -5.44,8.171 -5.44,13.131 l 0,38.233 -9.74,0 -0.02,-38.233 c 0,-7.255 2.749,-14.51 8.285,-20.046 5.473,-5.474 12.629,-8.236 19.803,-8.297 0.041,-10e-4 0.081,-0.007 0.122,-0.007 0.016,0 0.031,0.003 0.046,0.003 0.029,0 0.058,-0.002 0.086,-0.002 l -0.003,0.006 0.003,-0.006 0,0.006 c 1.239,0.035 2.441,0.551 3.317,1.425 0.905,0.907 1.422,2.163 1.422,3.448 0,1.277 -0.517,2.533 -1.422,3.439 -0.876,0.874 -2.078,1.39 -3.317,1.425 l 0,0.036 c -0.003,0 -0.007,0 -0.011,0 C 4.098,-1.104 1.988,-0.712 0,0" /></g><g
           transform="translate(0,48.2841)"
           id="g36"><path
             id="path38"
             style="fill:#64dcff;fill-opacity:1;fill-rule:nonzero;stroke:none"
             d="m 0,0 9.741,0 0,-48.284 -9.741,0 L 0,0 Z" /></g><g
           transform="translate(0,76.3632)"
           id="g40"><path
             id="path42"
             style="fill:#b400c8;fill-opacity:1;fill-rule:nonzero;stroke:none"
             d="m 0,0 9.741,0 0,-28.079 -4.871,0 -4.87,0 L 0,0 Z" /></g><path
           id="path44"
           style="fill:#507aff;fill-opacity:1;fill-rule:nonzero;stroke:none"
           d="m 19.482,76.363 -9.741,0 0,-48.226 9.741,0 0,48.226 z" /><g
           transform="translate(9.7413,0)"
           id="g46"><path
             id="path48"
             style="fill:#ff32ff;fill-opacity:1;fill-rule:nonzero;stroke:none"
             d="m 0,0 9.741,0 0,28.137 -0.005,0 C 9.714,29.393 9.204,30.615 8.318,31.502 7.412,32.408 6.155,32.934 4.87,32.934 3.593,32.934 2.337,32.408 1.431,31.502 0.545,30.615 0.026,29.393 0.004,28.137" /></g><g
           transform="translate(188.7561,76.3632)"
           id="g50"><path
             id="path52"
             style="fill:#64dcff;fill-opacity:1;fill-rule:nonzero;stroke:none"
             d="m 0,0 -9.741,0 0,-38.025 0.002,0 c 0.009,-1.272 0.533,-2.515 1.43,-3.413 0.905,-0.906 2.162,-1.432 3.439,-1.432 1.285,0 2.541,0.526 3.448,1.432 0.905,0.907 1.422,2.163 1.422,3.448 0,0.126 0.01,-0.125 0,0 L 0,0 Z" /></g><g
           transform="translate(255.1199,38.131)"
           id="g54"><path
             id="path56"
             style="fill:#507aff;fill-opacity:1;fill-rule:nonzero;stroke:none"
             d="m 0,0 0,38.033 -0.001,0 c 0,0.008 0.001,0.016 0.001,0.024 0,1.277 -0.517,2.533 -1.422,3.439 -0.907,0.905 -2.163,1.431 -3.448,1.431 -1.277,0 -2.534,-0.526 -3.439,-1.431 -0.906,-0.906 -1.432,-2.162 -1.432,-3.439 0,-0.008 10e-4,-0.016 10e-4,-0.024 l -10e-4,0 L -9.722,0 c 0,-7.255 -2.748,-14.511 -8.284,-20.047 -5.533,-5.532 -12.783,-8.3 -20.035,-8.303 l 0,-9.702 c 1.799,0 3.597,0.13 5.38,0.383 7.872,1.121 15.461,4.707 21.516,10.762 C -3.715,-19.477 0,-9.738 0,0 Z" /></g><path
           id="path58"
           style="fill:#ff32ff;fill-opacity:1;fill-rule:nonzero;stroke:none"
           d="m 103.923,76.363 65.148,0 0,-9.741 -65.148,0 0,9.741 z" /><g
           transform="translate(169.0716,66.6505)"
           id="g60"><path
             id="path62"
             style="fill:#b400c8;fill-opacity:1;fill-rule:nonzero;stroke:none"
             d="m 0,0 -27.663,0 c -0.028,0.001 -0.057,0.004 -0.085,0.004 -1.285,0 -2.542,-0.526 -3.448,-1.431 -0.906,-0.906 -1.422,-2.162 -1.422,-3.439 0,0 0,-0.003 0,-0.005 l -10e-4,0 0,-29.045 9.742,0 0,24.175 L 0,-9.741 0,0 Z" /></g><g
           transform="translate(146.1942,32.7344)"
           id="g64"><path
             id="path66"
             style="fill:#64dcff;fill-opacity:1;fill-rule:nonzero;stroke:none"
             d="M 0,0 C 0,0.002 0,0.003 0,0.005 0,1.281 -0.526,2.538 -1.431,3.443 -2.337,4.349 -3.594,4.875 -4.87,4.875 -6.155,4.875 -7.412,4.349 -8.318,3.443 -9.224,2.538 -9.74,1.281 -9.74,0.005 c 0,-0.002 0,-0.003 0,-0.005 l -10e-4,0 0,-32.734 9.742,0 L 0.001,0 0,0 Z" /></g><g
           transform="translate(89.8883,68.8594)"
           id="g68"><path
             id="path70"
             style="fill:#b400c8;fill-opacity:1;fill-rule:nonzero;stroke:none"
             d="m 0,0 c -6.707,4.981 -14.678,7.476 -22.652,7.476 -9.738,0 -19.477,-3.715 -26.907,-11.145 -7.469,-7.469 -11.181,-17.271 -11.142,-27.06 l 9.631,0 c 0,0.051 -0.004,0.101 -0.004,0.153 0,15.671 12.75,28.422 28.422,28.422 6.3,0 12.125,-2.064 16.843,-5.546 1.15,-0.849 2.236,-1.78 3.245,-2.788 l 6.819,6.819 C 2.909,-2.323 1.484,-1.102 0,0" /></g><g
           transform="translate(87.3244,18.1949)"
           id="g72"><path
             id="path74"
             style="fill:#ff32ff;fill-opacity:1;fill-rule:nonzero;stroke:none"
             d="m 0,0 c -5.147,-5.147 -12.252,-8.334 -20.088,-8.334 -15.347,0 -27.88,12.23 -28.393,27.455 0.051,0.285 0.081,0.574 0.081,0.866 0,1.276 -0.516,2.533 -1.422,3.439 -0.906,0.905 -2.163,1.431 -3.448,1.431 -1.277,0 -2.533,-0.526 -3.439,-1.431 -0.905,-0.906 -1.431,-2.163 -1.431,-3.439 0,-0.032 0.004,-0.064 0.005,-0.096 0.049,-9.672 3.76,-19.33 11.14,-26.71 7.43,-7.43 17.169,-11.145 26.907,-11.145 9.738,0 19.477,3.715 26.907,11.145 L 0,0 Z" /></g><g
           transform="translate(83.4584,61.601)"
           id="g76"><path
             id="path78"
             style="fill:#64dcff;fill-opacity:1;fill-rule:nonzero;stroke:none"
             d="m 0,0 c -4.604,3.213 -10.195,5.104 -16.222,5.104 -15.672,0 -28.422,-12.75 -28.422,-28.422 0,-0.014 10e-4,-0.028 10e-4,-0.043 l 9.852,0 c 0,0.015 -0.002,0.029 -0.002,0.043 0,4.96 1.932,9.624 5.439,13.131 3.508,3.508 8.172,5.44 13.132,5.44 3.653,0 7.141,-1.055 10.128,-3.008 1.07,-0.699 2.079,-1.507 3.004,-2.431 L 3.866,-3.23 C 2.678,-2.042 1.382,-0.964 0,0" /></g><g
           transform="translate(80.3679,25.1514)"
           id="g80"><path
             id="path82"
             style="fill:#507aff;fill-opacity:1;fill-rule:nonzero;stroke:none"
             d="m 0,0 c -0.929,-0.929 -1.943,-1.739 -3.018,-2.44 -2.985,-1.947 -6.467,-2.999 -10.114,-2.999 -4.96,0 -9.624,1.931 -13.131,5.439 -3.497,3.497 -5.426,8.144 -5.437,13.089 l -9.853,0 c 0.024,-15.652 12.764,-28.38 28.421,-28.38 5.733,0 11.071,1.712 15.541,4.643 1.64,1.076 3.166,2.31 4.547,3.692 L 0,0 Z" /></g></g></g></g></svg>