<?xml version="1.0" encoding="UTF-8" standalone="no"?>
<!-- Created with Inkscape (http://www.inkscape.org/) -->

<svg
   version="1.1"
   id="svg928"
   xml:space="preserve"
   width="1066.6667"
   height="277.27332"
   viewBox="0 0 1066.6667 277.27332"
   xmlns="http://www.w3.org/2000/svg"
   xmlns:svg="http://www.w3.org/2000/svg"><defs
     id="defs932"><clipPath
       clipPathUnits="userSpaceOnUse"
       id="clipPath942"><path
         d="M 0,207.955 H 800 V 0 H 0 Z"
         id="path940" /></clipPath><clipPath
       clipPathUnits="userSpaceOnUse"
       id="clipPath1116"><path
         d="M 100.96,181.509 H 251.622 V 19.6174 H 100.96 Z"
         id="path1114" /></clipPath><linearGradient
       x1="0"
       y1="0"
       x2="1"
       y2="0"
       gradientUnits="userSpaceOnUse"
       gradientTransform="matrix(23.753708,202.16095,202.16095,-23.753708,155.23141,-1.172425)"
       spreadMethod="pad"
       id="linearGradient1128"><stop
         style="stop-opacity:1;stop-color:#ef4452"
         offset="0"
         id="stop1122" /><stop
         style="stop-opacity:1;stop-color:#ef4452"
         offset="0.17483579"
         id="stop1124" /><stop
         style="stop-opacity:1;stop-color:#fccf21"
         offset="1"
         id="stop1126" /></linearGradient><linearGradient
       x1="0"
       y1="0"
       x2="1"
       y2="0"
       gradientUnits="userSpaceOnUse"
       gradientTransform="matrix(23.75349,202.15909,202.15909,-23.75349,192.63167,-5.5677514)"
       spreadMethod="pad"
       id="linearGradient1140"><stop
         style="stop-opacity:1;stop-color:#ef4452"
         offset="0"
         id="stop1134" /><stop
         style="stop-opacity:1;stop-color:#ef4452"
         offset="0.17483579"
         id="stop1136" /><stop
         style="stop-opacity:1;stop-color:#fccf21"
         offset="1"
         id="stop1138" /></linearGradient><linearGradient
       x1="0"
       y1="0"
       x2="1"
       y2="0"
       gradientUnits="userSpaceOnUse"
       gradientTransform="matrix(23.752064,202.14696,202.14696,-23.752064,124.62792,2.4282892)"
       spreadMethod="pad"
       id="linearGradient1152"><stop
         style="stop-opacity:1;stop-color:#ef4452"
         offset="0"
         id="stop1146" /><stop
         style="stop-opacity:1;stop-color:#ef4452"
         offset="0.17483579"
         id="stop1148" /><stop
         style="stop-opacity:1;stop-color:#fccf21"
         offset="1"
         id="stop1150" /></linearGradient><linearGradient
       x1="0"
       y1="0"
       x2="1"
       y2="0"
       gradientUnits="userSpaceOnUse"
       gradientTransform="matrix(23.7535,202.15918,202.15918,-23.7535,164.55652,-2.2681327)"
       spreadMethod="pad"
       id="linearGradient1164"><stop
         style="stop-opacity:1;stop-color:#ef4452"
         offset="0"
         id="stop1158" /><stop
         style="stop-opacity:1;stop-color:#ef4452"
         offset="0.17483579"
         id="stop1160" /><stop
         style="stop-opacity:1;stop-color:#fccf21"
         offset="1"
         id="stop1162" /></linearGradient><linearGradient
       x1="0"
       y1="0"
       x2="1"
       y2="0"
       gradientUnits="userSpaceOnUse"
       gradientTransform="matrix(23.753824,202.16194,202.16194,-23.753824,161.55219,-1.9171292)"
       spreadMethod="pad"
       id="linearGradient1176"><stop
         style="stop-opacity:1;stop-color:#ef4452"
         offset="0"
         id="stop1170" /><stop
         style="stop-opacity:1;stop-color:#ef4452"
         offset="0.17483579"
         id="stop1172" /><stop
         style="stop-opacity:1;stop-color:#fccf21"
         offset="1"
         id="stop1174" /></linearGradient><linearGradient
       x1="0"
       y1="0"
       x2="1"
       y2="0"
       gradientUnits="userSpaceOnUse"
       gradientTransform="matrix(23.75264,202.15186,202.15186,-23.75264,195.77599,-5.933393)"
       spreadMethod="pad"
       id="linearGradient1188"><stop
         style="stop-opacity:1;stop-color:#ef4452"
         offset="0"
         id="stop1182" /><stop
         style="stop-opacity:1;stop-color:#ef4452"
         offset="0.17483579"
         id="stop1184" /><stop
         style="stop-opacity:1;stop-color:#fccf21"
         offset="1"
         id="stop1186" /></linearGradient><linearGradient
       x1="0"
       y1="0"
       x2="1"
       y2="0"
       gradientUnits="userSpaceOnUse"
       gradientTransform="matrix(23.753759,202.16139,202.16139,-23.753759,127.79916,2.0496547)"
       spreadMethod="pad"
       id="linearGradient1200"><stop
         style="stop-opacity:1;stop-color:#ef4452"
         offset="0"
         id="stop1194" /><stop
         style="stop-opacity:1;stop-color:#ef4452"
         offset="0.17483579"
         id="stop1196" /><stop
         style="stop-opacity:1;stop-color:#fccf21"
         offset="1"
         id="stop1198" /></linearGradient><linearGradient
       x1="0"
       y1="0"
       x2="1"
       y2="0"
       gradientUnits="userSpaceOnUse"
       gradientTransform="matrix(23.752136,202.14757,202.14757,-23.752136,96.901428,5.6875119)"
       spreadMethod="pad"
       id="linearGradient1212"><stop
         style="stop-opacity:1;stop-color:#ef4452"
         offset="0"
         id="stop1206" /><stop
         style="stop-opacity:1;stop-color:#ef4452"
         offset="0.17483579"
         id="stop1208" /><stop
         style="stop-opacity:1;stop-color:#fccf21"
         offset="1"
         id="stop1210" /></linearGradient><linearGradient
       x1="0"
       y1="0"
       x2="1"
       y2="0"
       gradientUnits="userSpaceOnUse"
       gradientTransform="matrix(23.752979,202.15474,202.15474,-23.752979,229.52701,-9.9009619)"
       spreadMethod="pad"
       id="linearGradient1224"><stop
         style="stop-opacity:1;stop-color:#ef4452"
         offset="0"
         id="stop1218" /><stop
         style="stop-opacity:1;stop-color:#ef4452"
         offset="0.17483579"
         id="stop1220" /><stop
         style="stop-opacity:1;stop-color:#fccf21"
         offset="1"
         id="stop1222" /></linearGradient><linearGradient
       x1="0"
       y1="0"
       x2="1"
       y2="0"
       gradientUnits="userSpaceOnUse"
       gradientTransform="matrix(23.75341,202.15842,202.15842,-23.75341,167.58174,-2.6242614)"
       spreadMethod="pad"
       id="linearGradient1236"><stop
         style="stop-opacity:1;stop-color:#ef4452"
         offset="0"
         id="stop1230" /><stop
         style="stop-opacity:1;stop-color:#ef4452"
         offset="0.17483579"
         id="stop1232" /><stop
         style="stop-opacity:1;stop-color:#fccf21"
         offset="1"
         id="stop1234" /></linearGradient><linearGradient
       x1="0"
       y1="0"
       x2="1"
       y2="0"
       gradientUnits="userSpaceOnUse"
       gradientTransform="matrix(203.56467,0,0,-203.56467,97.212166,66.533546)"
       spreadMethod="pad"
       id="linearGradient1248"><stop
         style="stop-opacity:1;stop-color:#ef4452"
         offset="0"
         id="stop1242" /><stop
         style="stop-opacity:1;stop-color:#ef4452"
         offset="0.17483579"
         id="stop1244" /><stop
         style="stop-opacity:1;stop-color:#fccf21"
         offset="1"
         id="stop1246" /></linearGradient><linearGradient
       x1="0"
       y1="0"
       x2="1"
       y2="0"
       gradientUnits="userSpaceOnUse"
       gradientTransform="matrix(203.56689,0,0,-203.56689,0.7895079,144.89967)"
       spreadMethod="pad"
       id="linearGradient1260"><stop
         style="stop-opacity:1;stop-color:#ef4452"
         offset="0"
         id="stop1254" /><stop
         style="stop-opacity:1;stop-color:#ef4452"
         offset="0.17483579"
         id="stop1256" /><stop
         style="stop-opacity:1;stop-color:#fccf21"
         offset="1"
         id="stop1258" /></linearGradient><linearGradient
       x1="0"
       y1="0"
       x2="1"
       y2="0"
       gradientUnits="userSpaceOnUse"
       gradientTransform="matrix(203.56361,0,0,-203.56361,78.157997,129.73601)"
       spreadMethod="pad"
       id="linearGradient1272"><stop
         style="stop-opacity:1;stop-color:#ef4452"
         offset="0"
         id="stop1266" /><stop
         style="stop-opacity:1;stop-color:#ef4452"
         offset="0.17483579"
         id="stop1268" /><stop
         style="stop-opacity:1;stop-color:#fccf21"
         offset="1"
         id="stop1270" /></linearGradient></defs><g
     id="g934"
     transform="matrix(1.3333333,0,0,-1.3333333,0,277.27333)"><g
       id="g936"><g
         id="g938"
         clip-path="url(#clipPath942)"><g
           id="g944"
           transform="translate(609.5762,106.7608)"><path
             d="m 0,0 c -0.393,-0.9 -0.835,-1.989 -1.331,-3.269 -0.5,-1.293 -1.021,-2.688 -1.557,-4.191 H 2.889 C 2.344,-5.957 1.827,-4.549 1.313,-3.246 0.811,-1.945 0.371,-0.863 0,0 m 5.191,-14.178 c -0.238,0.694 -0.483,1.373 -0.746,2.056 -0.244,0.674 -0.492,1.372 -0.734,2.074 h -7.428 c -0.236,-0.702 -0.473,-1.4 -0.724,-2.09 -0.242,-0.685 -0.488,-1.366 -0.724,-2.04 h -3.317 c 0.661,1.872 1.274,3.607 1.875,5.198 0.589,1.587 1.164,3.095 1.739,4.515 0.564,1.417 1.121,2.774 1.674,4.061 0.56,1.283 1.137,2.545 1.732,3.8 H 1.59 c 0.58,-1.255 1.161,-2.517 1.722,-3.8 0.552,-1.287 1.122,-2.644 1.682,-4.061 0.572,-1.42 1.152,-2.928 1.755,-4.515 0.601,-1.591 1.222,-3.326 1.884,-5.198 z"
             style="fill:#1b1f54;fill-opacity:1;fill-rule:nonzero;stroke:none"
             id="path946" /></g><g
           id="g948"
           transform="translate(621.8145,99.2535)"><path
             d="m 0,0 c 0,-1.354 0.314,-2.414 0.956,-3.186 0.648,-0.765 1.537,-1.15 2.664,-1.15 0.496,0 0.914,0.017 1.267,0.06 0.337,0.044 0.623,0.09 0.849,0.141 V 3.473 C 5.46,3.661 5.099,3.831 4.659,3.995 4.205,4.155 3.728,4.238 3.219,4.238 2.1,4.238 1.287,3.856 0.774,3.094 0.263,2.332 0,1.299 0,0 M 8.802,-6.269 C 8.196,-6.45 7.422,-6.622 6.511,-6.772 5.587,-6.925 4.615,-7.001 3.606,-7.001 c -1.056,0 -1.993,0.162 -2.819,0.485 -0.831,0.316 -1.539,0.778 -2.12,1.377 -0.579,0.599 -1.03,1.329 -1.341,2.183 -0.312,0.856 -0.472,1.812 -0.472,2.878 0,1.051 0.129,2 0.391,2.852 0.267,0.855 0.65,1.587 1.153,2.193 0.511,0.614 1.128,1.078 1.852,1.412 C 0.973,6.708 1.821,6.87 2.768,6.87 3.404,6.87 3.974,6.798 4.462,6.645 4.951,6.489 5.375,6.319 5.736,6.136 v 6.367 l 3.066,0.507 z"
             style="fill:#1b1f54;fill-opacity:1;fill-rule:nonzero;stroke:none"
             id="path950" /></g><g
           id="g952"
           transform="translate(637.4336,92.5826)"><path
             d="m 0,0 c -0.852,1.742 -1.723,3.737 -2.61,5.997 -0.896,2.26 -1.706,4.678 -2.437,7.267 h 3.279 c 0.18,-0.743 0.4,-1.545 0.646,-2.399 0.248,-0.852 0.505,-1.708 0.795,-2.559 0.27,-0.853 0.558,-1.682 0.861,-2.489 0.296,-0.8 0.567,-1.524 0.833,-2.164 0.254,0.64 0.517,1.364 0.803,2.164 0.299,0.807 0.574,1.636 0.859,2.489 0.274,0.851 0.544,1.707 0.799,2.559 0.262,0.854 0.476,1.656 0.659,2.399 H 7.664 C 6.937,10.675 6.127,8.257 5.229,5.997 4.342,3.737 3.469,1.742 2.621,0 Z"
             style="fill:#1b1f54;fill-opacity:1;fill-rule:nonzero;stroke:none"
             id="path954" /></g><g
           id="g956"
           transform="translate(651.5166,94.7335)"><path
             d="M 0,0 C 0.946,0 1.664,0.052 2.154,0.159 V 3.552 C 1.985,3.602 1.741,3.656 1.418,3.71 1.092,3.755 0.744,3.783 0.352,3.783 0.015,3.783 -0.328,3.755 -0.671,3.71 -1.026,3.656 -1.329,3.559 -1.605,3.431 -1.897,3.293 -2.115,3.099 -2.289,2.853 -2.452,2.614 -2.547,2.298 -2.547,1.931 -2.547,1.206 -2.309,0.706 -1.854,0.426 -1.403,0.147 -0.784,0 0,0 m -0.262,11.441 c 1.021,0 1.869,-0.123 2.564,-0.378 C 2.995,10.811 3.548,10.456 3.968,9.999 4.383,9.541 4.682,8.983 4.854,8.339 5.03,7.687 5.121,6.972 5.121,6.189 V -1.848 C 4.646,-1.949 3.931,-2.069 2.983,-2.215 2.015,-2.357 0.946,-2.431 -0.262,-2.431 c -0.795,0 -1.52,0.075 -2.184,0.229 -0.654,0.148 -1.214,0.391 -1.676,0.736 -0.466,0.337 -0.837,0.775 -1.091,1.321 -0.268,0.535 -0.391,1.206 -0.391,2 0,0.761 0.145,1.405 0.439,1.928 0.289,0.525 0.694,0.951 1.2,1.282 0.515,0.331 1.095,0.563 1.765,0.71 0.666,0.142 1.367,0.214 2.086,0.214 0.346,0 0.703,-0.022 1.072,-0.066 C 1.335,5.885 1.734,5.814 2.154,5.707 v 0.511 c 0,0.354 -0.04,0.694 -0.131,1.014 C 1.94,7.553 1.793,7.841 1.579,8.085 1.37,8.327 1.092,8.515 0.744,8.656 0.397,8.786 -0.038,8.855 -0.566,8.855 -1.272,8.855 -1.922,8.804 -2.515,8.703 -3.111,8.598 -3.586,8.486 -3.965,8.346 l -0.381,2.488 c 0.396,0.134 0.958,0.274 1.71,0.404 0.739,0.137 1.533,0.203 2.374,0.203"
             style="fill:#1b1f54;fill-opacity:1;fill-rule:nonzero;stroke:none"
             id="path958" /></g><g
           id="g960"
           transform="translate(659.8848,105.4146)"><path
             d="m 0,0 c 0.589,0.17 1.359,0.328 2.302,0.483 0.953,0.154 2.002,0.226 3.147,0.226 1.081,0 1.989,-0.145 2.711,-0.446 0.733,-0.293 1.314,-0.702 1.742,-1.242 0.432,-0.529 0.735,-1.166 0.914,-1.927 0.18,-0.754 0.265,-1.575 0.265,-2.473 v -7.453 H 8.009 v 6.974 c 0,0.71 -0.038,1.315 -0.131,1.812 -0.097,0.504 -0.25,0.908 -0.456,1.219 -0.214,0.314 -0.5,0.539 -0.871,0.684 -0.364,0.145 -0.809,0.22 -1.331,0.22 -0.383,0 -0.795,-0.022 -1.212,-0.083 C 3.582,-2.051 3.266,-2.096 3.065,-2.133 V -12.832 H 0 Z"
             style="fill:#1b1f54;fill-opacity:1;fill-rule:nonzero;stroke:none"
             id="path962" /></g><g
           id="g964"
           transform="translate(673.4746,99.2013)"><path
             d="m 0,0 c 0,0.98 0.153,1.895 0.46,2.753 0.311,0.854 0.742,1.592 1.307,2.216 0.56,0.626 1.253,1.121 2.065,1.473 0.811,0.351 1.723,0.531 2.743,0.531 1.246,0 2.43,-0.224 3.549,-0.682 L 9.463,3.781 C 9.104,3.929 8.711,4.057 8.257,4.163 7.809,4.269 7.325,4.313 6.821,4.313 5.619,4.313 4.715,3.937 4.082,3.184 3.455,2.433 3.15,1.37 3.15,0 c 0,-1.317 0.294,-2.362 0.887,-3.133 0.587,-0.766 1.582,-1.151 2.993,-1.151 0.519,0 1.037,0.047 1.541,0.15 0.509,0.1 0.952,0.23 1.32,0.379 l 0.431,-2.538 C 9.987,-6.463 9.477,-6.612 8.793,-6.748 8.105,-6.882 7.397,-6.949 6.676,-6.949 c -1.138,0 -2.126,0.175 -2.953,0.522 -0.845,0.346 -1.533,0.83 -2.087,1.44 -0.551,0.62 -0.952,1.353 -1.233,2.209 C 0.135,-1.924 0,-0.999 0,0"
             style="fill:#1b1f54;fill-opacity:1;fill-rule:nonzero;stroke:none"
             id="path966" /></g><g
           id="g968"
           transform="translate(693.8447,100.5221)"><path
             d="M 0,0 C 0,0.417 -0.068,0.821 -0.182,1.204 -0.295,1.578 -0.472,1.908 -0.702,2.195 -0.924,2.47 -1.21,2.691 -1.535,2.849 -1.868,3.008 -2.261,3.093 -2.721,3.093 -3.19,3.093 -3.598,3.001 -3.961,2.828 -4.316,2.651 -4.621,2.414 -4.86,2.125 -5.106,1.837 -5.296,1.506 -5.436,1.141 -5.566,0.768 -5.657,0.385 -5.708,0 Z m -8.906,-1.375 c 0,1.169 0.179,2.191 0.524,3.071 0.343,0.88 0.799,1.614 1.383,2.196 0.571,0.584 1.23,1.018 1.973,1.317 0.746,0.296 1.508,0.443 2.283,0.443 1.827,0 3.256,-0.566 4.273,-1.697 C 2.554,2.821 3.069,1.129 3.069,-1.116 3.069,-1.287 3.065,-1.475 3.052,-1.688 3.043,-1.901 3.037,-2.087 3.021,-2.257 h -8.757 c 0.085,-1.07 0.464,-1.889 1.128,-2.475 0.677,-0.588 1.635,-0.873 2.908,-0.873 0.748,0 1.424,0.064 2.041,0.202 0.619,0.132 1.099,0.279 1.454,0.429 L 2.2,-7.48 C 2.041,-7.565 1.799,-7.659 1.507,-7.748 1.21,-7.843 0.869,-7.929 0.492,-8.003 0.104,-8.079 -0.295,-8.145 -0.734,-8.193 -1.182,-8.245 -1.628,-8.27 -2.085,-8.27 c -1.164,0 -2.177,0.175 -3.04,0.522 -0.865,0.346 -1.569,0.83 -2.134,1.44 -0.558,0.621 -0.97,1.349 -1.24,2.185 -0.271,0.839 -0.407,1.756 -0.407,2.748"
             style="fill:#1b1f54;fill-opacity:1;fill-rule:nonzero;stroke:none"
             id="path970" /></g><g
           id="g972"
           transform="translate(702.0615,99.2535)"><path
             d="m 0,0 c 0,-1.354 0.322,-2.414 0.964,-3.186 0.641,-0.765 1.522,-1.15 2.668,-1.15 0.484,0 0.902,0.017 1.253,0.06 0.343,0.044 0.631,0.09 0.85,0.141 V 3.473 C 5.453,3.661 5.103,3.831 4.654,3.995 4.207,4.155 3.723,4.238 3.223,4.238 2.105,4.238 1.286,3.856 0.778,3.094 0.258,2.332 0,1.299 0,0 M 8.802,-6.269 C 8.192,-6.45 7.426,-6.622 6.502,-6.772 5.578,-6.925 4.614,-7.001 3.594,-7.001 c -1.041,0 -1.983,0.162 -2.812,0.485 -0.831,0.316 -1.528,0.778 -2.113,1.377 -0.589,0.599 -1.029,1.329 -1.348,2.183 -0.31,0.856 -0.464,1.812 -0.464,2.878 0,1.051 0.131,2 0.388,2.852 0.262,0.855 0.65,1.587 1.157,2.193 0.504,0.614 1.128,1.078 1.856,1.412 C 0.982,6.708 1.819,6.87 2.763,6.87 3.408,6.87 3.969,6.798 4.459,6.645 4.951,6.489 5.373,6.319 5.735,6.136 v 6.367 l 3.067,0.507 z"
             style="fill:#1b1f54;fill-opacity:1;fill-rule:nonzero;stroke:none"
             id="path974" /></g><g
           id="g976"
           transform="translate(610.8809,62.3585)"><path
             d="m 0,0 c -1.316,0 -2.503,0.205 -3.558,0.614 -1.04,0.406 -1.925,0.999 -2.654,1.781 -0.727,0.792 -1.288,1.751 -1.672,2.884 -0.388,1.133 -0.593,2.44 -0.593,3.907 0,1.467 0.237,2.77 0.678,3.907 0.445,1.136 1.068,2.088 1.84,2.877 0.782,0.788 1.689,1.383 2.738,1.786 1.047,0.406 2.175,0.614 3.377,0.614 0.726,0 1.385,-0.058 1.981,-0.17 0.591,-0.11 1.1,-0.235 1.545,-0.369 0.439,-0.138 0.796,-0.279 1.089,-0.434 0.286,-0.148 0.492,-0.253 0.608,-0.322 L 4.443,14.456 c -0.411,0.252 -0.988,0.496 -1.742,0.725 -0.752,0.229 -1.565,0.348 -2.442,0.348 -0.769,0 -1.479,-0.137 -2.128,-0.392 -0.67,-0.268 -1.238,-0.659 -1.727,-1.184 -0.471,-0.525 -0.848,-1.185 -1.115,-1.975 -0.276,-0.797 -0.409,-1.722 -0.409,-2.769 0,-0.929 0.099,-1.785 0.31,-2.561 0.218,-0.777 0.54,-1.451 0.985,-2.015 0.435,-0.571 0.992,-1.009 1.661,-1.319 0.688,-0.317 1.499,-0.464 2.44,-0.464 1.136,0 2.062,0.105 2.768,0.337 0.704,0.227 1.263,0.442 1.645,0.645 L 5.557,1.222 C 5.355,1.085 5.079,0.952 4.734,0.814 4.383,0.68 3.979,0.549 3.5,0.421 3.032,0.297 2.495,0.19 1.898,0.116 1.31,0.037 0.676,0 0,0"
             style="fill:#1b1f54;fill-opacity:1;fill-rule:nonzero;stroke:none"
             id="path978" /></g><g
           id="g980"
           transform="translate(627.1113,69.3888)"><path
             d="M 0,0 C 0,1.318 -0.287,2.36 -0.844,3.131 -1.408,3.899 -2.199,4.287 -3.215,4.287 -4.231,4.287 -5.026,3.899 -5.598,3.131 -6.151,2.36 -6.444,1.318 -6.444,0 c 0,-1.338 0.293,-2.397 0.846,-3.163 0.572,-0.786 1.367,-1.175 2.383,-1.175 1.016,0 1.807,0.389 2.371,1.175 C -0.287,-2.397 0,-1.338 0,0 m 3.144,0 c 0,-1.047 -0.156,-2.007 -0.45,-2.866 -0.31,-0.865 -0.738,-1.602 -1.298,-2.21 -0.553,-0.609 -1.233,-1.079 -2.017,-1.417 -0.785,-0.342 -1.647,-0.513 -2.594,-0.513 -0.952,0 -1.811,0.171 -2.594,0.513 -0.777,0.338 -1.44,0.808 -2.001,1.417 -0.56,0.608 -0.992,1.345 -1.302,2.21 -0.307,0.859 -0.477,1.819 -0.477,2.866 0,1.049 0.17,1.995 0.477,2.85 0.31,0.852 0.752,1.587 1.314,2.196 0.564,0.61 1.238,1.075 2.02,1.408 0.776,0.327 1.629,0.492 2.563,0.492 0.928,0 1.784,-0.165 2.577,-0.492 C 0.137,6.121 0.807,5.656 1.371,5.046 1.926,4.437 2.363,3.702 2.678,2.85 2.988,1.995 3.144,1.049 3.144,0"
             style="fill:#1b1f54;fill-opacity:1;fill-rule:nonzero;stroke:none"
             id="path982" /></g><g
           id="g984"
           transform="translate(640.4785,69.7188)"><path
             d="M 0,0 C 0,1.383 -0.178,2.386 -0.526,3.002 -0.871,3.619 -1.513,3.93 -2.458,3.93 -2.795,3.93 -3.17,3.904 -3.574,3.852 -3.983,3.803 -4.281,3.76 -4.481,3.726 V -6.97 h -3.07 V 5.856 c 0.585,0.168 1.356,0.33 2.316,0.478 0.956,0.158 1.964,0.233 3.02,0.233 0.922,0 1.668,-0.116 2.251,-0.357 0.581,-0.231 1.073,-0.548 1.461,-0.933 0.186,0.13 0.417,0.278 0.71,0.43 0.29,0.149 0.605,0.291 0.964,0.417 0.354,0.125 0.738,0.23 1.131,0.318 0.401,0.084 0.802,0.125 1.204,0.125 1.027,0 1.872,-0.151 2.546,-0.443 0.669,-0.298 1.202,-0.71 1.581,-1.239 0.379,-0.537 0.631,-1.178 0.778,-1.93 0.152,-0.759 0.22,-1.577 0.22,-2.476 V -6.97 H 7.558 V 0 C 7.558,1.383 7.394,2.386 7.051,3.002 6.708,3.619 6.059,3.93 5.104,3.93 4.61,3.93 4.146,3.849 3.701,3.689 3.264,3.529 2.937,3.372 2.715,3.221 2.848,2.795 2.944,2.348 2.991,1.877 3.044,1.398 3.07,0.895 3.07,0.358 V -6.97 H 0 Z"
             style="fill:#1b1f54;fill-opacity:1;fill-rule:nonzero;stroke:none"
             id="path986" /></g><g
           id="g988"
           transform="translate(663.1504,69.3106)"><path
             d="M 0,0 C 0,1.374 -0.301,2.438 -0.926,3.197 -1.543,3.964 -2.529,4.338 -3.905,4.338 -4.189,4.338 -4.492,4.327 -4.799,4.3 -5.121,4.274 -5.426,4.221 -5.73,4.134 v -7.582 c 0.276,-0.19 0.629,-0.36 1.081,-0.521 0.448,-0.16 0.927,-0.242 1.432,-0.242 1.117,0 1.932,0.381 2.452,1.146 C -0.257,-2.304 0,-1.286 0,0 M 3.146,0.048 C 3.146,-0.964 3.021,-1.89 2.753,-2.742 2.49,-3.583 2.115,-4.312 1.627,-4.917 1.135,-5.529 0.526,-6 -0.216,-6.338 c -0.73,-0.341 -1.567,-0.509 -2.497,-0.509 -0.625,0 -1.198,0.075 -1.721,0.229 -0.526,0.152 -0.958,0.323 -1.296,0.504 v -5.144 H -8.8 V 6.265 c 0.629,0.168 1.4,0.329 2.308,0.477 0.911,0.158 1.884,0.234 2.895,0.234 1.045,0 1.986,-0.158 2.816,-0.484 C 0.046,6.17 0.752,5.712 1.335,5.109 1.912,4.511 2.365,3.78 2.687,2.928 2.995,2.073 3.146,1.117 3.146,0.048"
             style="fill:#1b1f54;fill-opacity:1;fill-rule:nonzero;stroke:none"
             id="path990" /></g><g
           id="g992"
           transform="translate(679.8437,63.1495)"><path
             d="m 0,0 c -0.597,-0.151 -1.359,-0.312 -2.315,-0.468 -0.945,-0.162 -1.981,-0.246 -3.111,-0.246 -1.064,0 -1.96,0.154 -2.679,0.46 -0.721,0.301 -1.293,0.719 -1.725,1.268 -0.432,0.545 -0.742,1.187 -0.924,1.941 -0.189,0.75 -0.278,1.576 -0.278,2.473 v 7.428 h 3.069 V 5.909 c 0,-1.421 0.202,-2.439 0.621,-3.041 0.416,-0.611 1.142,-0.918 2.166,-0.918 0.369,0 0.761,0.019 1.179,0.053 0.415,0.032 0.726,0.074 0.921,0.13 V 12.856 H 0 Z"
             style="fill:#1b1f54;fill-opacity:1;fill-rule:nonzero;stroke:none"
             id="path994" /></g><g
           id="g996"
           transform="translate(683.083,79.5069)"><path
             d="M 0,0 3.073,0.504 V -3.501 H 7.789 V -6.062 H 3.073 v -5.4 c 0,-1.071 0.174,-1.819 0.504,-2.288 0.335,-0.452 0.924,-0.682 1.727,-0.682 0.563,0 1.054,0.062 1.486,0.177 0.426,0.116 0.769,0.229 1.027,0.335 l 0.506,-2.437 C 7.971,-16.509 7.5,-16.669 6.93,-16.825 6.349,-16.987 5.675,-17.071 4.9,-17.071 c -0.947,0 -1.738,0.128 -2.374,0.382 -0.63,0.256 -1.134,0.62 -1.505,1.102 -0.364,0.484 -0.634,1.066 -0.79,1.753 C 0.087,-13.146 0,-12.368 0,-11.488 Z"
             style="fill:#1b1f54;fill-opacity:1;fill-rule:nonzero;stroke:none"
             id="path998" /></g><g
           id="g1000"
           transform="translate(701.2705,70.6847)"><path
             d="M 0,0 C 0,0.417 -0.061,0.826 -0.177,1.201 -0.294,1.581 -0.46,1.914 -0.693,2.189 -0.924,2.474 -1.198,2.69 -1.53,2.847 -1.857,3.009 -2.255,3.091 -2.715,3.091 -3.181,3.091 -3.596,3.002 -3.948,2.824 -4.31,2.647 -4.606,2.416 -4.853,2.13 -5.095,1.841 -5.284,1.512 -5.425,1.138 -5.566,0.764 -5.655,0.382 -5.701,0 Z m -8.898,-1.374 c 0,1.172 0.177,2.191 0.52,3.067 0.345,0.886 0.807,1.616 1.384,2.196 0.568,0.583 1.232,1.025 1.976,1.319 0.739,0.292 1.509,0.442 2.284,0.442 1.823,0 3.249,-0.561 4.271,-1.697 C 2.562,2.816 3.065,1.125 3.065,-1.116 V -1.689 C 3.05,-1.904 3.038,-2.091 3.021,-2.258 h -8.752 c 0.088,-1.069 0.467,-1.893 1.132,-2.475 0.67,-0.583 1.634,-0.876 2.897,-0.876 0.75,0 1.424,0.07 2.045,0.207 0.621,0.131 1.105,0.275 1.467,0.426 L 2.207,-7.488 C 2.037,-7.568 1.81,-7.656 1.513,-7.753 1.215,-7.847 0.88,-7.932 0.503,-8.003 0.121,-8.079 -0.294,-8.146 -0.729,-8.197 c -0.439,-0.052 -0.888,-0.078 -1.338,-0.078 -1.18,0 -2.184,0.173 -3.051,0.522 -0.867,0.348 -1.573,0.829 -2.134,1.448 -0.557,0.618 -0.977,1.341 -1.243,2.176 -0.272,0.836 -0.403,1.757 -0.403,2.755"
             style="fill:#1b1f54;fill-opacity:1;fill-rule:nonzero;stroke:none"
             id="path1002" /></g><g
           id="g1004"
           transform="translate(714.6387,73.2433)"><path
             d="M 0,0 C -0.25,0.083 -0.609,0.172 -1.051,0.266 -1.497,0.359 -2.021,0.405 -2.612,0.405 -2.953,0.405 -3.31,0.37 -3.691,0.301 -4.062,0.235 -4.332,0.177 -4.483,0.126 v -10.62 H -7.558 V 2.131 c 0.587,0.218 1.333,0.424 2.219,0.621 0.89,0.189 1.878,0.291 2.951,0.291 0.209,0 0.448,-0.01 0.718,-0.039 0.268,-0.025 0.534,-0.063 0.809,-0.099 0.268,-0.047 0.536,-0.095 0.793,-0.153 0.254,-0.058 0.447,-0.114 0.6,-0.165 z"
             style="fill:#1b1f54;fill-opacity:1;fill-rule:nonzero;stroke:none"
             id="path1006" /></g><g
           id="g1008"
           transform="translate(607.3232,35.2843)"><path
             d="M 0,0 C 1.156,0 1.991,0.198 2.516,0.586 3.04,0.975 3.306,1.523 3.306,2.237 3.306,2.659 3.215,3.02 3.04,3.325 2.86,3.632 2.606,3.906 2.273,4.148 1.95,4.391 1.552,4.622 1.075,4.836 0.598,5.049 0.062,5.254 -0.548,5.458 -1.153,5.676 -1.75,5.919 -2.317,6.18 -2.878,6.439 -3.374,6.768 -3.81,7.156 c -0.431,0.386 -0.778,0.849 -1.037,1.396 -0.265,0.54 -0.394,1.192 -0.394,1.95 0,1.591 0.553,2.84 1.649,3.743 1.102,0.901 2.594,1.356 4.488,1.356 1.095,0 2.073,-0.125 2.93,-0.366 0.852,-0.247 1.527,-0.513 2.013,-0.8 L 4.854,11.849 c -0.58,0.319 -1.201,0.569 -1.891,0.735 -0.69,0.172 -1.392,0.257 -2.117,0.257 -0.86,0 -1.535,-0.184 -2.022,-0.539 -0.475,-0.352 -0.718,-0.852 -0.718,-1.494 0,-0.387 0.08,-0.726 0.243,-1.003 0.157,-0.279 0.386,-0.528 0.685,-0.75 0.29,-0.217 0.64,-0.416 1.041,-0.608 C 0.466,8.267 0.904,8.085 1.382,7.921 2.203,7.61 2.943,7.307 3.604,6.996 4.246,6.682 4.799,6.308 5.246,5.879 5.694,5.447 6.037,4.935 6.271,4.353 6.513,3.771 6.63,3.062 6.63,2.237 6.63,0.645 6.073,-0.58 4.936,-1.457 3.816,-2.329 2.177,-2.759 0,-2.759 c -0.716,0 -1.383,0.041 -1.98,0.137 -0.601,0.094 -1.136,0.21 -1.602,0.343 -0.464,0.133 -0.865,0.269 -1.208,0.415 -0.332,0.15 -0.601,0.275 -0.807,0.394 l 0.949,2.614 C -4.196,0.892 -3.584,0.641 -2.805,0.387 -2.026,0.133 -1.089,0 0,0"
             style="fill:#1b1f54;fill-opacity:1;fill-rule:nonzero;stroke:none"
             id="path1010" /></g><g
           id="g1012"
           transform="translate(615.3652,39.5226)"><path
             d="M 0,0 C 0,0.98 0.163,1.896 0.459,2.758 0.768,3.605 1.201,4.345 1.767,4.974 2.337,5.6 3.024,6.089 3.84,6.44 c 0.806,0.365 1.726,0.534 2.728,0.534 1.257,0 2.443,-0.225 3.554,-0.679 L 9.465,3.781 C 9.111,3.935 8.704,4.059 8.259,4.164 7.812,4.263 7.337,4.313 6.828,4.313 5.627,4.313 4.715,3.935 4.09,3.182 3.465,2.429 3.146,1.372 3.146,0 c 0,-1.317 0.298,-2.366 0.891,-3.128 0.598,-0.775 1.59,-1.155 2.997,-1.155 0.523,0 1.035,0.045 1.545,0.151 0.504,0.099 0.941,0.224 1.316,0.379 l 0.433,-2.538 C 9.987,-6.459 9.482,-6.608 8.797,-6.746 8.111,-6.884 7.397,-6.948 6.676,-6.948 c -1.13,0 -2.114,0.173 -2.957,0.52 -0.835,0.347 -1.526,0.824 -2.077,1.444 -0.545,0.621 -0.958,1.355 -1.227,2.21 C 0.137,-1.925 0,-0.998 0,0"
             style="fill:#1b1f54;fill-opacity:1;fill-rule:nonzero;stroke:none"
             id="path1014" /></g><path
           d="m 630.665,32.902 h -3.074 v 13.266 h 3.074 z m 0.33,17.146 c 0,-0.575 -0.191,-1.031 -0.564,-1.368 -0.368,-0.34 -0.803,-0.511 -1.32,-0.511 -0.522,0 -0.967,0.171 -1.342,0.511 -0.368,0.337 -0.549,0.793 -0.549,1.368 0,0.592 0.181,1.056 0.549,1.394 0.375,0.34 0.82,0.509 1.342,0.509 0.517,0 0.952,-0.169 1.32,-0.509 0.373,-0.338 0.564,-0.802 0.564,-1.394"
           style="fill:#1b1f54;fill-opacity:1;fill-rule:nonzero;stroke:none"
           id="path1016" /><g
           id="g1018"
           transform="translate(642.2275,40.8419)"><path
             d="m 0,0 c 0,0.426 -0.057,0.824 -0.18,1.21 -0.113,0.377 -0.29,0.706 -0.516,0.983 -0.23,0.279 -0.508,0.496 -0.839,0.662 -0.333,0.161 -0.718,0.241 -1.178,0.241 -0.474,0 -0.891,-0.093 -1.251,-0.269 C -4.311,2.648 -4.608,2.421 -4.856,2.132 -5.104,1.843 -5.29,1.513 -5.42,1.14 -5.561,0.766 -5.655,0.388 -5.698,0 Z m -8.904,-1.373 c 0,1.172 0.173,2.195 0.524,3.074 0.345,0.883 0.805,1.61 1.379,2.191 0.581,0.583 1.232,1.024 1.98,1.325 0.747,0.298 1.507,0.437 2.28,0.437 1.835,0 3.251,-0.562 4.271,-1.698 1.03,-1.136 1.541,-2.825 1.541,-5.072 0,-0.168 0,-0.36 -0.017,-0.571 C 3.052,-1.9 3.039,-2.089 3.011,-2.259 h -8.743 c 0.086,-1.061 0.456,-1.89 1.131,-2.472 0.665,-0.584 1.632,-0.872 2.907,-0.872 0.74,0 1.418,0.068 2.035,0.202 0.621,0.134 1.107,0.283 1.468,0.429 L 2.208,-7.48 C 2.043,-7.567 1.809,-7.656 1.515,-7.747 1.21,-7.845 0.875,-7.928 0.494,-8.003 0.11,-8.08 -0.293,-8.144 -0.729,-8.192 -1.172,-8.243 -1.618,-8.268 -2.08,-8.268 c -1.163,0 -2.18,0.173 -3.041,0.521 -0.863,0.347 -1.573,0.823 -2.126,1.443 -0.561,0.621 -0.976,1.345 -1.246,2.185 -0.277,0.839 -0.411,1.755 -0.411,2.746"
             style="fill:#1b1f54;fill-opacity:1;fill-rule:nonzero;stroke:none"
             id="path1020" /></g><g
           id="g1022"
           transform="translate(648.0361,45.7393)"><path
             d="m 0,0 c 0.595,0.165 1.365,0.326 2.313,0.477 0.94,0.152 1.989,0.234 3.142,0.234 1.077,0 1.977,-0.152 2.715,-0.45 0.724,-0.295 1.299,-0.707 1.738,-1.24 0.428,-0.532 0.727,-1.173 0.912,-1.926 0.169,-0.756 0.262,-1.577 0.262,-2.474 v -7.458 H 8.017 v 6.976 c 0,0.709 -0.046,1.309 -0.141,1.813 -0.098,0.499 -0.248,0.904 -0.46,1.218 -0.21,0.315 -0.492,0.542 -0.857,0.688 -0.37,0.14 -0.815,0.211 -1.333,0.211 -0.388,0 -0.795,-0.023 -1.219,-0.077 C 3.588,-2.053 3.273,-2.102 3.073,-2.137 v -10.7 H 0 Z"
             style="fill:#1b1f54;fill-opacity:1;fill-rule:nonzero;stroke:none"
             id="path1024" /></g><g
           id="g1026"
           transform="translate(661.6318,39.5226)"><path
             d="M 0,0 C 0,0.98 0.157,1.896 0.457,2.758 0.762,3.605 1.195,4.345 1.759,4.974 2.327,5.6 3.013,6.089 3.832,6.44 c 0.807,0.365 1.722,0.534 2.734,0.534 1.257,0 2.441,-0.225 3.55,-0.679 L 9.459,3.781 C 9.104,3.935 8.7,4.059 8.261,4.164 7.805,4.263 7.331,4.313 6.824,4.313 5.623,4.313 4.705,3.935 4.088,3.182 3.461,2.429 3.146,1.372 3.146,0 c 0,-1.317 0.298,-2.366 0.887,-3.128 0.591,-0.775 1.59,-1.155 2.989,-1.155 0.529,0 1.049,0.045 1.553,0.151 0.504,0.099 0.95,0.224 1.316,0.379 L 10.32,-6.291 C 9.983,-6.459 9.479,-6.608 8.787,-6.746 8.1,-6.884 7.394,-6.948 6.667,-6.948 c -1.129,0 -2.109,0.173 -2.95,0.52 C 2.88,-6.081 2.186,-5.604 1.634,-4.984 1.091,-4.363 0.669,-3.629 0.399,-2.774 0.137,-1.925 0,-0.998 0,0"
             style="fill:#1b1f54;fill-opacity:1;fill-rule:nonzero;stroke:none"
             id="path1028" /></g><g
           id="g1030"
           transform="translate(681.9961,40.8419)"><path
             d="M 0,0 C 0,0.426 -0.059,0.824 -0.184,1.21 -0.293,1.587 -0.462,1.916 -0.7,2.193 -0.931,2.472 -1.2,2.689 -1.527,2.855 -1.858,3.016 -2.247,3.096 -2.713,3.096 -3.186,3.096 -3.601,3.003 -3.951,2.827 -4.314,2.648 -4.607,2.421 -4.855,2.132 -5.104,1.843 -5.291,1.513 -5.428,1.14 -5.561,0.766 -5.658,0.388 -5.702,0 Z m -8.905,-1.373 c 0,1.172 0.177,2.195 0.524,3.074 0.344,0.883 0.807,1.61 1.378,2.191 0.577,0.583 1.232,1.024 1.982,1.325 0.743,0.298 1.509,0.437 2.284,0.437 1.825,0 3.247,-0.562 4.273,-1.698 C 2.555,2.82 3.071,1.131 3.071,-1.116 3.071,-1.284 3.065,-1.476 3.062,-1.687 3.051,-1.9 3.033,-2.089 3.022,-2.259 h -8.756 c 0.085,-1.061 0.467,-1.89 1.133,-2.472 0.665,-0.584 1.634,-0.872 2.901,-0.872 0.75,0 1.429,0.068 2.043,0.202 0.623,0.134 1.104,0.283 1.458,0.429 L 2.208,-7.48 C 2.039,-7.567 1.805,-7.656 1.51,-7.747 1.212,-7.845 0.873,-7.928 0.502,-8.003 0.118,-8.08 -0.293,-8.144 -0.736,-8.192 c -0.44,-0.051 -0.89,-0.076 -1.34,-0.076 -1.165,0 -2.186,0.173 -3.045,0.521 -0.863,0.347 -1.575,0.823 -2.13,1.443 -0.557,0.621 -0.968,1.345 -1.251,2.185 -0.269,0.839 -0.403,1.755 -0.403,2.746"
             style="fill:#1b1f54;fill-opacity:1;fill-rule:nonzero;stroke:none"
             id="path1032" /></g><g
           id="g1034"
           transform="translate(607.6562,122.1729)"><path
             d="m 0,0 v -1.106 h -5.488 v 9.124 h 1.275 l 0,-8.018 z"
             style="fill:#1b1f54;fill-opacity:1;fill-rule:nonzero;stroke:none"
             id="path1036" /></g><g
           id="g1038"
           transform="translate(613.0859,125.151)"><path
             d="m 0,0 c 0,0.555 -0.136,1.009 -0.412,1.36 -0.286,0.362 -0.682,0.529 -1.184,0.529 -0.28,0 -0.528,-0.048 -0.74,-0.157 C -2.558,1.616 -2.739,1.477 -2.885,1.303 -3.035,1.129 -3.154,0.925 -3.228,0.695 -3.322,0.467 -3.372,0.23 -3.4,0 Z m -4.699,-0.679 c 0,0.608 0.086,1.142 0.258,1.592 0.179,0.452 0.411,0.826 0.698,1.125 0.288,0.302 0.623,0.521 1.004,0.673 0.379,0.152 0.762,0.224 1.153,0.224 0.922,0 1.634,-0.285 2.124,-0.865 0.494,-0.571 0.734,-1.452 0.734,-2.625 v -0.202 c 0,-0.084 0,-0.16 -0.009,-0.231 h -4.688 c 0.053,-0.709 0.258,-1.256 0.621,-1.62 0.356,-0.37 0.924,-0.553 1.683,-0.553 0.427,0 0.794,0.037 1.085,0.111 0.292,0.077 0.519,0.147 0.673,0.217 L 0.799,-3.858 C 0.657,-3.939 0.393,-4.021 0.016,-4.107 -0.359,-4.2 -0.776,-4.241 -1.259,-4.241 c -0.591,0 -1.101,0.092 -1.541,0.27 -0.428,0.177 -0.794,0.427 -1.079,0.745 -0.28,0.313 -0.481,0.689 -0.619,1.126 -0.145,0.433 -0.201,0.911 -0.201,1.421"
             style="fill:#1b1f54;fill-opacity:1;fill-rule:nonzero;stroke:none"
             id="path1040" /></g><path
           d="m 617.346,121.066 h -1.225 v 6.85 h 1.225 z m -0.617,8.084 c -0.218,0 -0.409,0.073 -0.561,0.223 -0.149,0.14 -0.231,0.336 -0.231,0.582 0,0.247 0.082,0.439 0.231,0.586 0.152,0.146 0.343,0.214 0.561,0.214 0.223,0 0.407,-0.068 0.556,-0.214 0.161,-0.147 0.237,-0.339 0.237,-0.586 0,-0.246 -0.076,-0.442 -0.237,-0.582 -0.149,-0.15 -0.333,-0.223 -0.556,-0.223"
           style="fill:#1b1f54;fill-opacity:1;fill-rule:nonzero;stroke:none"
           id="path1042" /><g
           id="g1044"
           transform="translate(623.8799,126.4644)"><path
             d="m 0,0 c -0.151,0.128 -0.365,0.242 -0.644,0.36 -0.282,0.115 -0.59,0.168 -0.921,0.168 -0.355,0 -0.654,-0.063 -0.912,-0.193 -0.244,-0.128 -0.443,-0.297 -0.601,-0.523 -0.161,-0.225 -0.282,-0.495 -0.351,-0.801 -0.066,-0.304 -0.104,-0.628 -0.104,-0.986 0,-0.8 0.205,-1.414 0.593,-1.849 0.403,-0.431 0.919,-0.651 1.585,-0.651 0.334,0 0.613,0.014 0.831,0.043 0.227,0.032 0.403,0.065 0.524,0.104 z M 0,4.609 1.225,4.821 V -5.204 c -0.281,-0.073 -0.644,-0.15 -1.079,-0.237 -0.443,-0.078 -0.947,-0.113 -1.517,-0.113 -0.521,0 -1.001,0.085 -1.424,0.25 -0.424,0.169 -0.783,0.404 -1.081,0.708 -0.291,0.312 -0.524,0.684 -0.69,1.129 -0.16,0.442 -0.245,0.941 -0.245,1.492 0,0.528 0.068,1.007 0.212,1.452 0.134,0.438 0.335,0.815 0.596,1.131 0.268,0.317 0.591,0.563 0.974,0.738 0.369,0.17 0.81,0.262 1.31,0.262 0.386,0 0.739,-0.054 1.037,-0.156 C -0.371,1.346 -0.151,1.246 0,1.145 Z"
             style="fill:#1b1f54;fill-opacity:1;fill-rule:nonzero;stroke:none"
             id="path1046" /></g><g
           id="g1048"
           transform="translate(631.5254,125.151)"><path
             d="m 0,0 c 0.015,0.555 -0.123,1.009 -0.415,1.36 -0.282,0.362 -0.678,0.529 -1.174,0.529 -0.278,0 -0.526,-0.048 -0.74,-0.157 C -2.545,1.616 -2.732,1.477 -2.884,1.303 -3.027,1.129 -3.15,0.925 -3.229,0.695 -3.313,0.467 -3.37,0.23 -3.39,0 Z m -4.697,-0.679 c 0,0.608 0.085,1.142 0.262,1.592 0.182,0.452 0.415,0.826 0.703,1.125 0.286,0.302 0.621,0.521 0.996,0.673 0.382,0.152 0.766,0.224 1.162,0.224 0.923,0 1.633,-0.285 2.115,-0.865 0.492,-0.571 0.74,-1.452 0.74,-2.625 v -0.202 c 0,-0.084 -0.004,-0.16 -0.01,-0.231 h -4.685 c 0.044,-0.709 0.254,-1.256 0.619,-1.62 0.357,-0.37 0.914,-0.553 1.672,-0.553 0.439,0 0.797,0.037 1.098,0.111 0.29,0.077 0.511,0.147 0.665,0.217 L 0.805,-3.858 C 0.652,-3.939 0.397,-4.021 0.022,-4.107 -0.343,-4.2 -0.772,-4.241 -1.248,-4.241 c -0.597,0 -1.113,0.092 -1.547,0.27 -0.434,0.177 -0.793,0.427 -1.066,0.745 -0.287,0.313 -0.494,0.689 -0.638,1.126 -0.133,0.433 -0.198,0.911 -0.198,1.421"
             style="fill:#1b1f54;fill-opacity:1;fill-rule:nonzero;stroke:none"
             id="path1050" /></g><g
           id="g1052"
           transform="translate(634.5693,127.7203)"><path
             d="m 0,0 c 0.286,0.068 0.653,0.142 1.121,0.222 0.462,0.076 0.996,0.121 1.609,0.121 0.547,0 0.993,-0.083 1.354,-0.23 0.357,-0.155 0.644,-0.374 0.863,-0.649 0.212,-0.278 0.365,-0.61 0.449,-0.992 0.089,-0.39 0.138,-0.815 0.138,-1.283 V -6.654 H 4.3 v 3.584 c 0,0.42 -0.029,0.784 -0.072,1.079 C 4.167,-1.69 4.068,-1.447 3.937,-1.267 3.804,-1.085 3.626,-0.954 3.408,-0.866 3.194,-0.781 2.92,-0.737 2.59,-0.737 2.456,-0.737 2.331,-0.744 2.187,-0.75 2.041,-0.758 1.91,-0.774 1.783,-0.791 1.666,-0.801 1.549,-0.814 1.444,-0.83 1.339,-0.847 1.267,-0.866 1.227,-0.873 V -6.654 H 0 Z"
             style="fill:#1b1f54;fill-opacity:1;fill-rule:nonzero;stroke:none"
             id="path1054" /></g><path
           d="m 645.246,130.191 h 1.273 v -9.125 h -1.273 z"
           style="fill:#1b1f54;fill-opacity:1;fill-rule:nonzero;stroke:none"
           id="path1056" /><g
           id="g1058"
           transform="translate(648.7139,127.7203)"><path
             d="m 0,0 c 0.278,0.068 0.655,0.142 1.115,0.222 0.472,0.076 1,0.121 1.612,0.121 0.542,0 0.986,-0.083 1.348,-0.23 0.369,-0.155 0.658,-0.374 0.863,-0.649 0.219,-0.278 0.372,-0.61 0.46,-0.992 0.091,-0.39 0.13,-0.815 0.13,-1.283 V -6.654 H 4.302 v 3.584 c 0,0.42 -0.025,0.784 -0.081,1.079 C 4.16,-1.69 4.065,-1.447 3.933,-1.267 3.8,-1.085 3.632,-0.954 3.406,-0.866 3.185,-0.781 2.916,-0.737 2.594,-0.737 2.458,-0.737 2.327,-0.744 2.176,-0.75 2.043,-0.758 1.905,-0.774 1.778,-0.791 1.655,-0.801 1.543,-0.814 1.437,-0.83 1.337,-0.847 1.262,-0.866 1.218,-0.873 V -6.654 H 0 Z"
             style="fill:#1b1f54;fill-opacity:1;fill-rule:nonzero;stroke:none"
             id="path1060" /></g><g
           id="g1062"
           transform="translate(657.8623,121.9478)"><path
             d="m 0,0 c 0.502,0 0.873,0.07 1.115,0.196 0.238,0.139 0.363,0.346 0.363,0.637 0,0.299 -0.119,0.533 -0.357,0.708 -0.24,0.176 -0.632,0.379 -1.178,0.595 -0.26,0.104 -0.516,0.213 -0.753,0.322 -0.241,0.109 -0.447,0.24 -0.625,0.389 -0.177,0.152 -0.312,0.328 -0.419,0.54 -0.109,0.208 -0.157,0.467 -0.157,0.778 0,0.604 0.218,1.084 0.673,1.44 0.441,0.355 1.053,0.533 1.827,0.533 0.191,0 0.384,-0.011 0.575,-0.034 C 1.263,6.083 1.445,6.06 1.607,6.027 1.769,5.995 1.922,5.96 2.047,5.925 2.174,5.892 2.276,5.862 2.341,5.835 L 2.123,4.783 C 1.986,4.852 1.78,4.925 1.504,4.998 1.228,5.074 0.881,5.11 0.489,5.11 0.145,5.11 -0.155,5.044 -0.41,4.906 -0.664,4.772 -0.789,4.554 -0.789,4.267 -0.789,4.116 -0.761,3.991 -0.708,3.871 -0.649,3.758 -0.562,3.654 -0.442,3.565 -0.325,3.47 -0.18,3.387 0,3.311 0.175,3.226 0.389,3.146 0.635,3.06 0.958,2.931 1.24,2.815 1.504,2.698 1.752,2.575 1.972,2.438 2.155,2.276 2.341,2.125 2.479,1.933 2.567,1.707 2.668,1.483 2.717,1.208 2.717,0.88 2.717,0.249 2.482,-0.226 2.007,-0.55 1.543,-0.876 0.865,-1.038 0,-1.038 c -0.607,0 -1.079,0.048 -1.422,0.151 -0.348,0.104 -0.577,0.177 -0.694,0.232 l 0.221,1.049 C -1.757,0.346 -1.531,0.267 -1.221,0.158 -0.918,0.056 -0.509,0 0,0"
             style="fill:#1b1f54;fill-opacity:1;fill-rule:nonzero;stroke:none"
             id="path1064" /></g><g
           id="g1066"
           transform="translate(663.2891,127.9161)"><path
             d="M 0,0 H 2.588 V -1.026 H 0 v -3.165 c 0,-0.342 0.026,-0.624 0.077,-0.848 0.048,-0.221 0.133,-0.4 0.234,-0.525 0.109,-0.129 0.242,-0.215 0.403,-0.27 0.157,-0.055 0.343,-0.079 0.549,-0.079 0.367,0 0.664,0.041 0.891,0.126 0.218,0.086 0.379,0.142 0.466,0.177 L 2.853,-6.624 C 2.735,-6.688 2.518,-6.761 2.215,-6.855 1.904,-6.949 1.551,-6.991 1.149,-6.991 c -0.459,0 -0.838,0.058 -1.145,0.174 -0.302,0.116 -0.553,0.298 -0.73,0.533 -0.187,0.236 -0.314,0.533 -0.391,0.882 -0.076,0.343 -0.109,0.742 -0.109,1.2 v 6.11 L 0,2.12 Z"
             style="fill:#1b1f54;fill-opacity:1;fill-rule:nonzero;stroke:none"
             id="path1068" /></g><path
           d="m 668.666,121.066 h -1.229 v 6.85 h 1.229 z m -0.627,8.084 c -0.216,0 -0.397,0.073 -0.557,0.223 -0.155,0.14 -0.227,0.336 -0.227,0.582 0,0.247 0.072,0.439 0.227,0.586 0.16,0.146 0.341,0.214 0.557,0.214 0.228,0 0.407,-0.068 0.561,-0.214 0.157,-0.147 0.232,-0.339 0.232,-0.586 0,-0.246 -0.075,-0.442 -0.232,-0.582 -0.154,-0.15 -0.333,-0.223 -0.561,-0.223"
           style="fill:#1b1f54;fill-opacity:1;fill-rule:nonzero;stroke:none"
           id="path1070" /><g
           id="g1072"
           transform="translate(671.915,127.9161)"><path
             d="M 0,0 H 2.588 V -1.026 H 0 v -3.165 c 0,-0.342 0.022,-0.624 0.079,-0.848 0.049,-0.221 0.133,-0.4 0.234,-0.525 0.105,-0.129 0.238,-0.215 0.399,-0.27 0.153,-0.055 0.335,-0.079 0.549,-0.079 0.371,0 0.664,0.041 0.895,0.126 0.218,0.086 0.373,0.142 0.46,0.177 L 2.851,-6.624 C 2.729,-6.688 2.52,-6.761 2.205,-6.855 1.904,-6.949 1.543,-6.991 1.16,-6.991 c -0.468,0 -0.851,0.058 -1.16,0.174 -0.296,0.116 -0.542,0.298 -0.726,0.533 -0.179,0.236 -0.318,0.533 -0.393,0.882 -0.065,0.343 -0.107,0.742 -0.107,1.2 v 6.11 L 0,2.12 Z"
             style="fill:#1b1f54;fill-opacity:1;fill-rule:nonzero;stroke:none"
             id="path1074" /></g><g
           id="g1076"
           transform="translate(681.5059,121.2608)"><path
             d="m 0,0 c -0.282,-0.066 -0.642,-0.139 -1.102,-0.217 -0.469,-0.079 -1.003,-0.119 -1.597,-0.119 -0.536,0 -0.972,0.077 -1.339,0.231 -0.357,0.15 -0.646,0.367 -0.867,0.653 -0.226,0.279 -0.375,0.61 -0.481,0.988 -0.098,0.389 -0.14,0.808 -0.14,1.276 V 6.655 H -4.3 V 3.072 c 0,-0.834 0.133,-1.427 0.4,-1.79 0.255,-0.36 0.707,-0.539 1.331,-0.539 0.129,0 0.257,0.001 0.401,0.014 0.139,0.007 0.284,0.015 0.393,0.034 0.129,0.012 0.238,0.025 0.338,0.038 0.101,0.011 0.18,0.029 0.218,0.047 V 6.655 H 0 Z"
             style="fill:#1b1f54;fill-opacity:1;fill-rule:nonzero;stroke:none"
             id="path1078" /></g><g
           id="g1080"
           transform="translate(684.7646,127.9161)"><path
             d="M 0,0 H 2.594 V -1.026 H 0 v -3.165 c 0,-0.342 0.026,-0.624 0.081,-0.848 0.044,-0.221 0.127,-0.4 0.23,-0.525 0.107,-0.129 0.242,-0.215 0.401,-0.27 0.151,-0.055 0.343,-0.079 0.551,-0.079 0.367,0 0.661,0.041 0.883,0.126 0.226,0.086 0.383,0.142 0.472,0.177 L 2.862,-6.624 C 2.739,-6.688 2.521,-6.761 2.215,-6.855 1.902,-6.949 1.558,-6.991 1.162,-6.991 c -0.47,0 -0.859,0.058 -1.154,0.174 -0.302,0.116 -0.546,0.298 -0.734,0.533 -0.181,0.236 -0.308,0.533 -0.393,0.882 -0.07,0.343 -0.107,0.742 -0.107,1.2 v 6.11 L 0,2.12 Z"
             style="fill:#1b1f54;fill-opacity:1;fill-rule:nonzero;stroke:none"
             id="path1082" /></g><g
           id="g1084"
           transform="translate(693.0986,125.151)"><path
             d="M 0,0 C 0.016,0.555 -0.134,1.009 -0.418,1.36 -0.7,1.722 -1.091,1.889 -1.596,1.889 -1.872,1.889 -2.122,1.841 -2.336,1.732 -2.554,1.616 -2.733,1.477 -2.88,1.303 -3.033,1.129 -3.146,0.925 -3.231,0.695 -3.312,0.467 -3.366,0.23 -3.396,0 Z m -4.703,-0.679 c 0,0.608 0.089,1.142 0.269,1.592 0.17,0.452 0.404,0.826 0.695,1.125 0.292,0.302 0.625,0.521 0.994,0.673 0.381,0.152 0.766,0.224 1.168,0.224 0.915,0 1.621,-0.285 2.119,-0.865 0.49,-0.571 0.732,-1.452 0.732,-2.625 v -0.202 c 0,-0.084 -0.003,-0.16 -0.011,-0.231 h -4.688 c 0.059,-0.709 0.265,-1.256 0.621,-1.62 0.354,-0.37 0.924,-0.553 1.687,-0.553 0.423,0 0.788,0.037 1.083,0.111 0.3,0.077 0.517,0.147 0.667,0.217 L 0.794,-3.858 C 0.659,-3.939 0.392,-4.021 0.016,-4.107 -0.359,-4.2 -0.774,-4.241 -1.247,-4.241 c -0.601,0 -1.117,0.092 -1.549,0.27 -0.435,0.177 -0.79,0.427 -1.072,0.745 -0.28,0.313 -0.492,0.689 -0.632,1.126 -0.127,0.433 -0.203,0.911 -0.203,1.421"
             style="fill:#1b1f54;fill-opacity:1;fill-rule:nonzero;stroke:none"
             id="path1086" /></g><g
           id="g1088"
           transform="translate(703.9473,124.4898)"><path
             d="M 0,0 C 0,0.775 -0.176,1.386 -0.519,1.841 -0.867,2.292 -1.333,2.515 -1.935,2.515 -2.531,2.515 -3.012,2.292 -3.353,1.841 -3.703,1.386 -3.875,0.775 -3.875,0 c 0,-0.773 0.172,-1.385 0.522,-1.833 0.341,-0.455 0.822,-0.683 1.418,-0.683 0.602,0 1.068,0.228 1.416,0.683 C -0.176,-1.385 0,-0.773 0,0 m 1.274,0 c 0,-0.538 -0.081,-1.036 -0.236,-1.474 -0.157,-0.44 -0.375,-0.819 -0.661,-1.131 -0.286,-0.315 -0.625,-0.563 -1.021,-0.729 -0.395,-0.173 -0.831,-0.259 -1.291,-0.259 -0.461,0 -0.895,0.086 -1.294,0.259 -0.393,0.166 -0.736,0.414 -1.012,0.729 -0.293,0.312 -0.511,0.691 -0.674,1.131 -0.153,0.438 -0.231,0.936 -0.231,1.474 0,0.536 0.078,1.027 0.231,1.471 0.163,0.442 0.381,0.821 0.674,1.137 0.276,0.313 0.619,0.561 1.012,0.735 0.399,0.165 0.833,0.253 1.294,0.253 0.46,0 0.896,-0.088 1.291,-0.253 C -0.248,3.169 0.091,2.921 0.377,2.608 0.663,2.292 0.881,1.913 1.038,1.471 1.193,1.027 1.274,0.536 1.274,0"
             style="fill:#1b1f54;fill-opacity:1;fill-rule:nonzero;stroke:none"
             id="path1090" /></g><g
           id="g1092"
           transform="translate(709.625,131.2852)"><path
             d="M 0,0 C 0.358,0 0.673,-0.025 0.923,-0.081 1.189,-0.126 1.363,-0.18 1.472,-0.22 L 1.248,-1.278 c -0.107,0.053 -0.252,0.102 -0.447,0.151 -0.189,0.052 -0.424,0.075 -0.711,0.075 -0.57,0 -0.972,-0.156 -1.203,-0.466 -0.225,-0.312 -0.333,-0.734 -0.333,-1.259 v -0.592 h 2.628 v -1.026 h -2.628 v -5.824 h -1.233 v 7.466 c 0,0.88 0.218,1.557 0.65,2.035 C -1.598,-0.237 -0.924,0 0,0"
             style="fill:#1b1f54;fill-opacity:1;fill-rule:nonzero;stroke:none"
             id="path1094" /></g><g
           id="g1096"
           transform="translate(296.3838,32.2071)"><path
             d="m 0,0 c -6.576,0.12 -12.03,0.854 -16.353,2.192 -4.327,1.339 -7.769,3.257 -10.328,5.758 -2.556,2.495 -4.355,5.602 -5.39,9.32 -1.034,3.714 -1.552,7.949 -1.552,12.699 V 139.99 l 22.112,3.656 V 34.178 c 0,-2.683 0.211,-4.935 0.638,-6.766 0.428,-1.826 1.188,-3.381 2.285,-4.66 1.099,-1.278 2.591,-2.256 4.479,-2.923 1.885,-0.669 4.295,-1.186 7.219,-1.553 z"
             style="fill:#1b1f54;fill-opacity:1;fill-rule:nonzero;stroke:none"
             id="path1098" /></g><path
           d="m 336.918,34.034 h -22.112 v 95.582 h 22.112 z m 2.377,123.545 c 0,-4.146 -1.343,-7.436 -4.024,-9.873 -2.683,-2.435 -5.844,-3.652 -9.5,-3.652 -3.779,0 -7.006,1.217 -9.687,3.652 -2.682,2.437 -4.018,5.727 -4.018,9.873 0,4.261 1.336,7.611 4.018,10.051 2.681,2.435 5.908,3.654 9.687,3.654 3.656,0 6.817,-1.219 9.5,-3.654 2.681,-2.44 4.024,-5.79 4.024,-10.051"
           style="fill:#1b1f54;fill-opacity:1;fill-rule:nonzero;stroke:none"
           id="path1100" /><g
           id="g1102"
           transform="translate(549.1191,49.9327)"><path
             d="m 0,0 c 5.849,0 10.112,0.701 12.791,2.104 2.678,1.399 4.023,3.804 4.023,7.215 0,3.169 -1.433,5.788 -4.297,7.863 -2.861,2.068 -7.585,4.324 -14.163,6.761 -4.019,1.461 -7.708,3.014 -11.056,4.661 -3.35,1.643 -6.246,3.562 -8.681,5.751 -2.44,2.194 -4.358,4.849 -5.756,7.954 -1.404,3.107 -2.103,6.914 -2.103,11.42 0,8.776 3.228,15.686 9.688,20.745 6.456,5.054 15.226,7.585 26.317,7.585 5.6,0 10.962,-0.52 16.08,-1.553 5.117,-1.037 8.959,-2.045 11.514,-3.018 L 30.338,59.577 c -2.441,1.1 -5.545,2.105 -9.322,3.02 -3.78,0.912 -8.164,1.368 -13.157,1.368 -4.511,0 -8.166,-0.762 -10.965,-2.283 -2.807,-1.522 -4.204,-3.871 -4.204,-7.036 0,-1.585 0.275,-2.988 0.82,-4.205 0.549,-1.218 1.492,-2.347 2.832,-3.381 1.343,-1.035 3.105,-2.074 5.304,-3.106 2.19,-1.034 4.871,-2.101 8.039,-3.201 5.24,-1.95 9.689,-3.867 13.339,-5.753 3.657,-1.893 6.672,-4.02 9.048,-6.396 2.376,-2.38 4.115,-5.09 5.209,-8.133 1.096,-3.046 1.647,-6.701 1.647,-10.968 0,-9.139 -3.383,-16.052 -10.144,-20.74 -6.76,-4.689 -16.421,-7.037 -28.968,-7.037 -8.406,0 -15.169,0.7 -20.287,2.103 -5.115,1.395 -8.709,2.525 -10.782,3.379 l 3.84,18.461 c 3.289,-1.344 7.221,-2.624 11.79,-3.843 C -11.059,0.609 -5.849,0 0,0"
             style="fill:#1b1f54;fill-opacity:1;fill-rule:nonzero;stroke:none"
             id="path1104" /></g><g
           id="g1106"
           transform="translate(406.3945,50.6622)"><path
             d="m 0,0 c -3.538,-0.729 -8.713,-1.095 -15.536,-1.095 -5.607,0 -10.054,1.006 -13.339,3.014 -3.291,2.015 -4.931,5.636 -4.931,10.875 0,2.684 0.607,4.905 1.824,6.671 1.215,1.765 2.83,3.136 4.841,4.114 2.012,0.971 4.264,1.642 6.762,2.009 2.499,0.367 4.965,0.548 7.405,0.548 2.796,0 5.358,-0.181 7.673,-0.548 C -2.989,25.221 -1.223,24.856 0,24.491 Z M 102.763,4.022 C 100.08,2.926 96.914,2.011 93.26,1.279 89.604,0.55 85.89,0.187 82.111,0.187 c -10.115,0 -17.301,2.768 -21.565,8.312 -4.264,5.544 -6.394,13.067 -6.394,22.572 0,9.869 2.251,17.513 6.76,22.933 4.508,5.427 11.084,8.136 19.738,8.136 3.655,0 7.093,-0.365 10.327,-1.096 3.226,-0.733 6.121,-1.646 8.679,-2.741 l 4.75,18.093 c -8.041,3.288 -16.572,4.933 -25.584,4.933 -7.312,0 -13.889,-1.277 -19.74,-3.839 C 53.232,74.934 48.27,71.398 44.189,66.892 40.107,62.384 36.969,57.05 34.778,50.902 32.602,44.801 31.512,38.25 31.49,31.254 c -0.803,0.438 -1.604,0.867 -2.431,1.283 -2.628,1.329 -5.186,2.416 -7.682,3.28 V 43.5 c 0,5.602 -0.641,10.749 -1.918,15.442 -1.281,4.69 -3.409,8.68 -6.396,11.97 -2.983,3.289 -6.972,5.847 -11.966,7.674 -4.997,1.83 -11.15,2.743 -18.46,2.743 -6.096,0 -11.821,-0.487 -17.179,-1.462 -5.358,-0.978 -9.442,-1.954 -12.243,-2.924 l 2.74,-17.911 c 2.679,0.975 6.149,1.828 10.418,2.564 4.264,0.725 8.952,1.092 14.072,1.092 3.776,0 6.912,-0.488 9.41,-1.461 2.497,-0.977 4.51,-2.349 6.034,-4.113 1.521,-1.766 2.586,-3.809 3.197,-6.122 C -0.303,48.675 0,46.24 0,43.681 v -3.657 c -3.048,0.735 -5.914,1.252 -8.588,1.556 -2.683,0.301 -5.238,0.456 -7.678,0.456 -5.242,0 -10.265,-0.52 -15.078,-1.554 -4.816,-1.035 -9.049,-2.746 -12.701,-5.115 -3.654,-2.378 -6.551,-5.455 -8.68,-9.231 -2.132,-3.78 -3.196,-8.406 -3.196,-13.888 0,-5.729 0.941,-10.542 2.829,-14.438 1.89,-3.901 4.508,-7.067 7.859,-9.502 3.35,-2.441 7.401,-4.206 12.153,-5.3 4.752,-1.1 9.99,-1.645 15.717,-1.645 8.65,0 16.415,0.518 23.304,1.551 6.881,1.035 12.027,1.918 15.436,2.649 v 30.572 c 0.165,-0.08 0.324,-0.152 0.489,-0.235 4.462,-2.253 8.169,-4.642 11.13,-7.163 1.322,-1.129 2.508,-2.211 3.577,-3.255 1.767,-3.836 3.993,-7.283 6.702,-10.323 3.959,-4.449 8.954,-7.924 14.988,-10.418 6.03,-2.492 13.124,-3.745 21.288,-3.745 5.24,0 10.328,0.487 15.265,1.464 4.933,0.971 8.617,2.068 11.052,3.288 z"
             style="fill:#1b1f54;fill-opacity:1;fill-rule:nonzero;stroke:none"
             id="path1108" /></g><g
           id="g1110"><g
             id="g1112" /><g
             id="g1406"><g
               clip-path="url(#clipPath1116)"
               id="g1404"><g
                 id="g1282"><g
                   id="g1280"><g
                     id="g1278"><g
                       id="g1276"><path
                         d="m 148.291,32.763 c -1.24,-5.894 2.529,-11.669 8.418,-12.909 5.891,-1.241 11.671,2.531 12.91,8.422 1.239,5.888 -2.532,11.668 -8.422,12.908 -5.889,1.238 -11.669,-2.534 -12.906,-8.421"
                         style="fill:url(#linearGradient1128);stroke:none"
                         id="path1274" /></g></g></g></g><g
                 id="g1292"><g
                   id="g1290"><g
                     id="g1288"><g
                       id="g1286"><path
                         d="m 189.544,61.15 c -1.24,-5.889 2.528,-11.668 8.418,-12.909 5.891,-1.238 11.669,2.533 12.909,8.423 1.238,5.89 -2.531,11.669 -8.422,12.906 -5.889,1.241 -11.669,-2.53 -12.905,-8.42"
                         style="fill:url(#linearGradient1140);stroke:none"
                         id="path1284" /></g></g></g></g><g
                 id="g1302"><g
                   id="g1300"><g
                     id="g1298"><g
                       id="g1296"><path
                         d="m 122.263,75.304 c -1.241,-5.889 2.529,-11.67 8.42,-12.908 5.891,-1.24 11.671,2.531 12.909,8.42 1.238,5.893 -2.532,11.67 -8.422,12.909 -5.891,1.239 -11.668,-2.531 -12.907,-8.421"
                         style="fill:url(#linearGradient1152);stroke:none"
                         id="path1294" /></g></g></g></g><g
                 id="g1312"><g
                   id="g1310"><g
                     id="g1308"><g
                       id="g1306"><path
                         d="m 170.028,137.309 c -1.237,-5.891 2.532,-11.671 8.422,-12.909 5.888,-1.241 11.668,2.531 12.908,8.419 1.236,5.891 -2.532,11.67 -8.423,12.911 -5.889,1.237 -11.669,-2.533 -12.907,-8.421"
                         style="fill:url(#linearGradient1164);stroke:none"
                         id="path1304" /></g></g></g></g><g
                 id="g1322"><g
                   id="g1320"><g
                     id="g1318"><g
                       id="g1316"><path
                         d="m 162.808,101.765 c -1.242,-5.891 2.527,-11.668 8.418,-12.908 5.891,-1.239 11.67,2.532 12.909,8.422 1.239,5.888 -2.532,11.668 -8.423,12.907 -5.888,1.239 -11.667,-2.533 -12.904,-8.421"
                         style="fill:url(#linearGradient1176);stroke:none"
                         id="path1314" /></g></g></g></g><g
                 id="g1332"><g
                   id="g1330"><g
                     id="g1328"><g
                       id="g1326"><path
                         d="m 196.667,94.643 c -1.242,-5.891 2.529,-11.67 8.418,-12.908 5.891,-1.239 11.67,2.53 12.909,8.42 1.238,5.889 -2.533,11.67 -8.422,12.909 -5.889,1.239 -11.668,-2.533 -12.905,-8.421"
                         style="fill:url(#linearGradient1188);stroke:none"
                         id="path1324" /></g></g></g></g><g
                 id="g1342"><g
                   id="g1340"><g
                     id="g1338"><g
                       id="g1336"><path
                         d="m 129.412,108.79 c -1.238,-5.889 2.532,-11.669 8.421,-12.909 5.891,-1.237 11.67,2.532 12.91,8.422 1.237,5.89 -2.532,11.668 -8.422,12.908 -5.891,1.238 -11.671,-2.534 -12.909,-8.421"
                         style="fill:url(#linearGradient1200);stroke:none"
                         id="path1334" /></g></g></g></g><g
                 id="g1352"><g
                   id="g1350"><g
                     id="g1348"><g
                       id="g1346"><path
                         d="m 101.149,116.2 c -0.991,-4.71 2.023,-9.33 6.733,-10.32 4.709,-0.991 9.328,2.022 10.321,6.734 0.99,4.707 -2.024,9.329 -6.732,10.318 -4.71,0.993 -9.332,-2.024 -10.322,-6.732"
                         style="fill:url(#linearGradient1212);stroke:none"
                         id="path1344" /></g></g></g></g><g
                 id="g1362"><g
                   id="g1360"><g
                     id="g1358"><g
                       id="g1356"><path
                         d="m 230.057,87.618 c -1.239,-5.89 2.531,-11.669 8.422,-12.908 5.889,-1.239 11.669,2.531 12.908,8.421 1.238,5.889 -2.532,11.668 -8.42,12.908 -5.891,1.24 -11.671,-2.531 -12.91,-8.421"
                         style="fill:url(#linearGradient1224);stroke:none"
                         id="path1354" /></g></g></g></g><g
                 id="g1372"><g
                   id="g1370"><g
                     id="g1368"><g
                       id="g1366"><path
                         d="m 177.272,172.852 c -1.239,-5.891 2.53,-11.67 8.419,-12.909 5.893,-1.237 11.671,2.532 12.91,8.425 1.239,5.887 -2.532,11.667 -8.42,12.906 -5.89,1.239 -11.669,-2.532 -12.909,-8.422"
                         style="fill:url(#linearGradient1236);stroke:none"
                         id="path1364" /></g></g></g></g><g
                 id="g1382"><g
                   id="g1380"><g
                     id="g1378"><g
                       id="g1376"><path
                         d="m 167.336,80.638 c -7.789,0.916 -14.847,-4.658 -15.76,-12.447 -0.917,-7.79 4.655,-14.846 12.445,-15.762 7.791,-0.913 14.847,4.658 15.762,12.447 0.916,7.789 -4.658,14.846 -12.447,15.762"
                         style="fill:url(#linearGradient1248);stroke:none"
                         id="path1374" /></g></g></g></g><g
                 id="g1392"><g
                   id="g1390"><g
                     id="g1388"><g
                       id="g1386"><path
                         d="m 146.553,161.173 c -8.988,1.057 -17.131,-5.372 -18.187,-14.361 -1.055,-8.988 5.373,-17.129 14.362,-18.186 8.989,-1.057 17.13,5.374 18.186,14.362 1.057,8.987 -5.373,17.129 -14.361,18.185"
                         style="fill:url(#linearGradient1260);stroke:none"
                         id="path1384" /></g></g></g></g><g
                 id="g1402"><g
                   id="g1400"><g
                     id="g1398"><g
                       id="g1396"><path
                         d="m 216.867,144.111 c -7.939,0.934 -15.132,-4.747 -16.064,-12.685 -0.933,-7.941 4.747,-15.131 12.687,-16.066 7.938,-0.932 15.129,4.747 16.063,12.687 0.933,7.939 -4.747,15.131 -12.686,16.064"
                         style="fill:url(#linearGradient1272);stroke:none"
                         id="path1394" /></g></g></g></g></g></g></g></g></g></g></svg>
